<?xml version="1.0" encoding="UTF-8" standalone="no"?>
<!DOCTYPE svg PUBLIC "-//W3C//DTD SVG 1.1//EN"
 "http://www.w3.org/Graphics/SVG/1.1/DTD/svg11.dtd">
<!-- Generated by graphviz version 9.0.0 (20230911.1827)
 -->
<!-- Title: prob_graph Pages: 1 -->
<svg width="540pt" height="719pt"
 viewBox="0.00 0.00 540.00 718.81" xmlns="http://www.w3.org/2000/svg" xmlns:xlink="http://www.w3.org/1999/xlink">
<g id="graph0" class="graph" transform="scale(0.356318 0.356318) rotate(0) translate(4 2013.33)">
<title>prob_graph</title>
<polygon fill="white" stroke="none" points="-4,4 -4,-2013.33 1511.5,-2013.33 1511.5,4 -4,4"/>
<!-- 1 -->
<g id="node1" class="node">
<title>1</title>
<polygon fill="none" stroke="green" points="193.88,-1855.75 193.88,-1900.25 359.62,-1900.25 359.62,-1855.75 193.88,-1855.75"/>
<text text-anchor="middle" x="203.38" y="-1873.72" font-family="Times New Roman,serif" font-size="12.00"> </text>
<polyline fill="none" stroke="green" points="212.88,-1855.75 212.88,-1900.25"/>
<text text-anchor="middle" x="276.75" y="-1884.85" font-family="Times New Roman,serif" font-size="12.00">SETUP_CONSTANTS</text>
<polyline fill="none" stroke="green" points="212.88,-1878 340.62,-1878"/>
<text text-anchor="middle" x="276.75" y="-1862.6" font-family="Times New Roman,serif" font-size="12.00"># states: 1</text>
<polyline fill="none" stroke="green" points="340.62,-1855.75 340.62,-1900.25"/>
<text text-anchor="middle" x="350.12" y="-1873.72" font-family="Times New Roman,serif" font-size="12.00"> </text>
</g>
<!-- 2 -->
<g id="node2" class="node">
<title>2</title>
<polygon fill="none" stroke="green" points="205.12,-1300.75 205.12,-1345.25 348.38,-1345.25 348.38,-1300.75 205.12,-1300.75"/>
<text text-anchor="middle" x="214.62" y="-1318.72" font-family="Times New Roman,serif" font-size="12.00"> </text>
<polyline fill="none" stroke="green" points="224.12,-1300.75 224.12,-1345.25"/>
<text text-anchor="middle" x="276.75" y="-1329.85" font-family="Times New Roman,serif" font-size="12.00">INITIALISATION</text>
<polyline fill="none" stroke="green" points="224.12,-1323 329.38,-1323"/>
<text text-anchor="middle" x="276.75" y="-1307.6" font-family="Times New Roman,serif" font-size="12.00"># states: 1</text>
<polyline fill="none" stroke="green" points="329.38,-1300.75 329.38,-1345.25"/>
<text text-anchor="middle" x="338.88" y="-1318.72" font-family="Times New Roman,serif" font-size="12.00"> </text>
</g>
<!-- 1&#45;&gt;2 -->
<g id="edge1" class="edge">
<title>1&#45;&gt;2</title>
<path fill="none" stroke="black" d="M276.75,-1855.32C276.75,-1770.31 276.75,-1459.37 276.75,-1356.95"/>
<polygon fill="black" stroke="black" points="280.25,-1357.04 276.75,-1347.04 273.25,-1357.04 280.25,-1357.04"/>
<text text-anchor="middle" x="332.62" y="-1595.72" font-family="Times New Roman,serif" font-size="12.00">SETUP_CONSTANTS</text>
</g>
<!-- 3 -->
<g id="node3" class="node">
<title>3</title>
<polygon fill="none" stroke="blue" stroke-width="2" points="0,-697.62 0,-756.38 553.5,-756.38 553.5,-697.62 0,-697.62"/>
<text text-anchor="middle" x="9.5" y="-722.73" font-family="Times New Roman,serif" font-size="12.00"> </text>
<polyline fill="none" stroke="blue" stroke-width="2" points="19,-697.62 19,-756.38"/>
<text text-anchor="middle" x="276.75" y="-740.98" font-family="Times New Roman,serif" font-size="12.00">AllMissionMovementsConsumedPower, DockedAtStarbase, EngageWarpDrive, GameStatus, MissionStatus, </text>
<text text-anchor="middle" x="276.75" y="-726.73" font-family="Times New Roman,serif" font-size="12.00">MoveBackward, MoveDown,\nMoveForward, MoveUp, RegionsVisited</text>
<polyline fill="none" stroke="blue" stroke-width="2" points="19,-719.88 534.5,-719.88"/>
<text text-anchor="middle" x="276.75" y="-704.48" font-family="Times New Roman,serif" font-size="12.00"># states: 9</text>
<polyline fill="none" stroke="blue" stroke-width="2" points="534.5,-697.62 534.5,-756.38"/>
<text text-anchor="middle" x="544" y="-722.73" font-family="Times New Roman,serif" font-size="12.00"> </text>
</g>
<!-- 2&#45;&gt;3 -->
<g id="edge2" class="edge">
<title>2&#45;&gt;3</title>
<path fill="none" stroke="black" d="M276.75,-1300.51C276.75,-1213.12 276.75,-883.66 276.75,-768.24"/>
<polygon fill="black" stroke="black" points="280.25,-768.33 276.75,-758.33 273.25,-768.33 280.25,-768.33"/>
<text text-anchor="middle" x="321.38" y="-1041.72" font-family="Times New Roman,serif" font-size="12.00">INITIALISATION</text>
</g>
<!-- 3&#45;&gt;3 -->
<g id="edge3" class="edge">
<title>3&#45;&gt;3</title>
<path fill="none" stroke="#806040" stroke-dasharray="5,2" d="M553.82,-730.55C565.02,-729.63 571.5,-728.44 571.5,-727 571.5,-726.14 569.21,-725.38 565.01,-724.71"/>
<polygon fill="#806040" stroke="#806040" points="565.65,-721.25 555.32,-723.62 564.87,-728.21 565.65,-721.25"/>
<text text-anchor="middle" x="592.12" y="-722.73" font-family="Times New Roman,serif" font-size="12.00">MoveUp</text>
</g>
<!-- 3&#45;&gt;3 -->
<g id="edge4" class="edge">
<title>3&#45;&gt;3</title>
<path fill="none" stroke="#806040" stroke-dasharray="5,2" d="M553.88,-737.35C589.26,-735.51 612.75,-732.06 612.75,-727 612.75,-722.49 594.12,-719.26 565.04,-717.31"/>
<polygon fill="#806040" stroke="#806040" points="565.58,-713.84 555.39,-716.74 565.16,-720.82 565.58,-713.84"/>
<text text-anchor="middle" x="640.12" y="-722.73" font-family="Times New Roman,serif" font-size="12.00">MoveDown</text>
</g>
<!-- 3&#45;&gt;3 -->
<g id="edge6" class="edge">
<title>3&#45;&gt;3</title>
<path fill="none" stroke="#806040" stroke-dasharray="5,2" d="M553.86,-744.39C618.73,-742.74 667.5,-736.95 667.5,-727 667.5,-717.64 624.27,-711.95 565.09,-709.94"/>
<polygon fill="#806040" stroke="#806040" points="565.47,-706.45 555.37,-709.65 565.27,-713.45 565.47,-706.45"/>
<text text-anchor="middle" x="704.62" y="-722.73" font-family="Times New Roman,serif" font-size="12.00">MoveBackward</text>
</g>
<!-- 3&#45;&gt;3 -->
<g id="edge7" class="edge">
<title>3&#45;&gt;3</title>
<path fill="none" stroke="#806040" d="M553.74,-750.85C655.07,-750.8 741.75,-742.85 741.75,-727 741.75,-711.75 661.55,-703.81 565.25,-703.19"/>
<polygon fill="#806040" stroke="#806040" points="565.26,-699.69 555.25,-703.16 565.24,-706.69 565.26,-699.69"/>
<text text-anchor="middle" x="783.75" y="-722.73" font-family="Times New Roman,serif" font-size="12.00">EngageWarpDrive</text>
</g>
<!-- 3&#45;&gt;3 -->
<g id="edge9" class="edge">
<title>3&#45;&gt;3</title>
<path fill="none" stroke="black" d="M553.73,-756.4C692.59,-759.01 825.75,-749.2 825.75,-727 825.75,-705.4 699.77,-695.54 565.11,-697.41"/>
<polygon fill="black" stroke="black" points="565.19,-693.91 555.24,-697.57 565.3,-700.91 565.19,-693.91"/>
<text text-anchor="middle" x="857.25" y="-722.73" font-family="Times New Roman,serif" font-size="12.00">MissionStatus</text>
</g>
<!-- 3&#45;&gt;3 -->
<g id="edge10" class="edge">
<title>3&#45;&gt;3</title>
<path fill="none" stroke="black" d="M463.01,-756.87C649.59,-770.5 888.75,-760.54 888.75,-727 888.75,-694.13 659.07,-683.91 474.28,-696.34"/>
<polygon fill="black" stroke="black" points="474.25,-692.83 464.52,-697.02 474.74,-699.82 474.25,-692.83"/>
<text text-anchor="middle" x="922.5" y="-722.73" font-family="Times New Roman,serif" font-size="12.00">RegionsVisited</text>
</g>
<!-- 3&#45;&gt;3 -->
<g id="edge11" class="edge">
<title>3&#45;&gt;3</title>
<path fill="none" stroke="black" d="M425.76,-756.87C635.82,-779.62 956.25,-769.66 956.25,-727 956.25,-685.09 646.98,-674.74 436.94,-695.96"/>
<polygon fill="black" stroke="black" points="436.85,-692.45 427.27,-696.97 437.58,-699.41 436.85,-692.45"/>
<text text-anchor="middle" x="1046.25" y="-722.73" font-family="Times New Roman,serif" font-size="12.00">AllMissionMovementsConsumedPower</text>
</g>
<!-- 3&#45;&gt;3 -->
<g id="edge12" class="edge">
<title>3&#45;&gt;3</title>
<path fill="none" stroke="black" d="M414.59,-756.87C669.39,-788.2 1136.25,-778.24 1136.25,-727 1136.25,-676.51 682.97,-666.1 425.92,-695.78"/>
<polygon fill="black" stroke="black" points="425.61,-692.29 416.09,-696.95 426.44,-699.24 425.61,-692.29"/>
<text text-anchor="middle" x="1180.12" y="-722.73" font-family="Times New Roman,serif" font-size="12.00">DockedAtStarbase</text>
</g>
<!-- 3&#45;&gt;3 -->
<g id="edge13" class="edge">
<title>3&#45;&gt;3</title>
<path fill="none" stroke="black" d="M398.01,-756.86C668.18,-796.55 1224,-786.6 1224,-727 1224,-668.21 683.28,-657.73 409.25,-695.54"/>
<polygon fill="black" stroke="black" points="408.92,-692.05 399.51,-696.93 409.91,-698.98 408.92,-692.05"/>
<text text-anchor="middle" x="1251.38" y="-722.73" font-family="Times New Roman,serif" font-size="12.00">GameStatus</text>
</g>
<!-- 3&#45;&gt;3 -->
<g id="edge16" class="edge">
<title>3&#45;&gt;3</title>
<path fill="none" stroke="#806040" stroke-dasharray="5,2" d="M383.69,-756.82C659.72,-804.79 1278.75,-794.85 1278.75,-727 1278.75,-660.04 675.93,-649.48 394.79,-695.31"/>
<polygon fill="#806040" stroke="#806040" points="394.47,-691.82 385.19,-696.93 395.63,-698.72 394.47,-691.82"/>
<text text-anchor="middle" x="1312.12" y="-722.73" font-family="Times New Roman,serif" font-size="12.00">MoveForward</text>
</g>
<!-- 4 -->
<g id="node4" class="node">
<title>4</title>
<polygon fill="none" stroke="orange" points="193.5,-109.75 193.5,-154.25 360,-154.25 360,-109.75 193.5,-109.75"/>
<text text-anchor="middle" x="203" y="-127.72" font-family="Times New Roman,serif" font-size="12.00"> </text>
<polyline fill="none" stroke="orange" points="212.5,-109.75 212.5,-154.25"/>
<text text-anchor="middle" x="276.75" y="-138.85" font-family="Times New Roman,serif" font-size="12.00">NOT YET EXPLORED</text>
<polyline fill="none" stroke="orange" points="212.5,-132 341,-132"/>
<text text-anchor="middle" x="276.75" y="-116.6" font-family="Times New Roman,serif" font-size="12.00"># states: 98</text>
<polyline fill="none" stroke="orange" points="341,-109.75 341,-154.25"/>
<text text-anchor="middle" x="350.5" y="-127.72" font-family="Times New Roman,serif" font-size="12.00"> </text>
</g>
<!-- 3&#45;&gt;4 -->
<g id="edge5" class="edge">
<title>3&#45;&gt;4</title>
<path fill="none" stroke="#806040" stroke-dasharray="5,2" d="M238.05,-697.23C170.57,-643.25 42.09,-521.43 81,-401.88 113.47,-302.12 198.45,-208.52 245.05,-162.6"/>
<polygon fill="#806040" stroke="#806040" points="247.48,-165.12 252.2,-155.64 242.59,-160.1 247.48,-165.12"/>
<text text-anchor="middle" x="115.12" y="-404.73" font-family="Times New Roman,serif" font-size="12.00">MoveForward</text>
</g>
<!-- 3&#45;&gt;4 -->
<g id="edge8" class="edge">
<title>3&#45;&gt;4</title>
<path fill="none" stroke="#806040" d="M256.78,-697.17C220.5,-641.35 149.42,-514.13 170.75,-401.88 187.85,-311.86 234.49,-213.46 259.82,-164.44"/>
<polygon fill="#806040" stroke="#806040" points="262.8,-166.29 264.34,-155.81 256.6,-163.05 262.8,-166.29"/>
<text text-anchor="middle" x="212.75" y="-404.73" font-family="Times New Roman,serif" font-size="12.00">EngageWarpDrive</text>
</g>
<!-- 3&#45;&gt;4 -->
<g id="edge14" class="edge">
<title>3&#45;&gt;4</title>
<path fill="none" stroke="#806040" stroke-dasharray="5,2" d="M276.75,-697.4C276.75,-598.48 276.75,-271.17 276.75,-165.91"/>
<polygon fill="#806040" stroke="#806040" points="280.25,-165.99 276.75,-155.99 273.25,-165.99 280.25,-165.99"/>
<text text-anchor="middle" x="297.38" y="-404.73" font-family="Times New Roman,serif" font-size="12.00">MoveUp</text>
</g>
<!-- 3&#45;&gt;4 -->
<g id="edge15" class="edge">
<title>3&#45;&gt;4</title>
<path fill="none" stroke="#806040" stroke-dasharray="5,2" d="M284.45,-697.49C298.76,-641.17 327.27,-511.62 318.75,-401.88 312.08,-315.97 293.6,-216 283.52,-165.61"/>
<polygon fill="#806040" stroke="#806040" points="286.98,-165.07 281.57,-155.96 280.12,-166.45 286.98,-165.07"/>
<text text-anchor="middle" x="346.12" y="-404.73" font-family="Times New Roman,serif" font-size="12.00">MoveDown</text>
</g>
<!-- 3&#45;&gt;4 -->
<g id="edge17" class="edge">
<title>3&#45;&gt;4</title>
<path fill="none" stroke="#806040" stroke-dasharray="5,2" d="M295.52,-697.54C330,-641.85 398.13,-514.09 377.75,-401.88 361.51,-312.48 317.22,-214.12 293.04,-164.85"/>
<polygon fill="#806040" stroke="#806040" points="296.17,-163.29 288.59,-155.89 289.9,-166.41 296.17,-163.29"/>
<text text-anchor="middle" x="415.88" y="-404.73" font-family="Times New Roman,serif" font-size="12.00">MoveBackward</text>
</g>
</g>
</svg>
